# xmcd
#
# Track frame offsets: 
#        150
#        13832
#        27366
#        42239
#        57555
#        74817
#        96603
#        113407
#        132206
#        149244
#        167855
#        178649
#        195618
#        211527
#        225093
#        238775
#
# Disc length: 3585 seconds
#
# Revision: 0
# Processed by: cddbd v1.5.2PL0 Copyright (c) Steve Scherf et al.
# Submitted via: ExactAudioCopyFreeDBPlugin 1.0
#
DISCID=ea0dff10
DTITLE=Nas - The Lost Tapes II
DYEAR=2019
DGENRE=No, thanks.
TTITLE0=No Bad Energy
TTITLE1=Vernon Family
TTITLE2=Jarreau Of Rap (Skatt Attack)
TTITLE3=Lost Freestyle
TTITLE4=Tanasia
TTITLE5=Royalty
TTITLE6=Who Are You
TTITLE7=Adult Film
TTITLE8=War Against Love
TTITLE9=The Art Of It
TTITLE10=Highly Favored
TTITLE11=Queens Wolf
TTITLE12=It Never Ends
TTITLE13=You Mean The World To Me
TTITLE14=Queensbridge Politics
TTITLE15=Beautiful Life
EXTD=
EXTT0=
EXTT1=
EXTT2=
EXTT3=
EXTT4=
EXTT5=
EXTT6=
EXTT7=
EXTT8=
EXTT9=
EXTT10=
EXTT11=
EXTT12=
EXTT13=
EXTT14=
EXTT15=
PLAYORDER=
